<svg width="100" height="25" viewBox="0 0 100 25" fill="none" xmlns="http://www.w3.org/2000/svg">
<path fill-rule="evenodd" clip-rule="evenodd" d="M50.0999 5.89738C52.2339 5.89738 54.1087 6.98057 55.2455 8.60536V1.08319C53.6898 0.401182 51.9348 0 50.0999 0C43.2392 0 37.6748 5.3959 37.6748 12.0555C37.6748 18.7152 43.2392 24.111 50.0999 24.111C51.9348 24.111 53.6699 23.7299 55.2455 23.0279V18.6178C56.5102 21.941 60.0352 24.3315 64.1796 24.3315C68.723 24.3315 72.5219 21.4587 73.4146 17.6335V23.6698H79.0389V14.5028C79.0389 13.1387 80.1358 12.0555 81.472 12.0555C82.8282 12.0555 83.9052 13.1588 83.9052 14.5028V23.6698H89.5294V14.5028C89.5294 13.7606 89.8685 13.0786 90.387 12.6373C90.8058 12.2762 91.3443 12.0555 91.9426 12.0555C93.2988 12.0555 94.3758 13.1588 94.3758 14.5028V23.6497H100V13.2992C100 10.7718 98.3247 8.60538 96.0312 7.90331C95.4927 7.74284 94.9143 7.64254 94.316 7.64254C92.2817 7.64254 90.5067 8.72573 89.5095 10.3305C89.4895 10.3706 89.4696 10.4057 89.4496 10.4408C89.4297 10.4759 89.4097 10.511 89.3898 10.5511C88.4724 9.26733 87.1361 8.30449 85.5805 7.90331C85.042 7.7629 84.4836 7.68266 83.9052 7.68266C81.9906 7.68266 80.2554 8.48503 79.0389 9.78887V7.88325H73.4146V14.1513C72.5225 10.3405 68.729 7.4819 64.1796 7.4819C58.9742 7.4819 54.7461 11.253 54.7461 15.9067C54.7461 16.0559 54.7504 16.2042 54.759 16.3516C53.6196 17.6356 51.9497 18.4343 50.0999 18.4343C46.6496 18.4343 43.8574 15.626 43.8574 12.1558C43.8574 8.6856 46.6496 5.89738 50.0999 5.89738ZM2.1739 0.541548H22.9955L11.0889 18.6349H21.719V23.6296H0L12.0063 5.41591H2.13401L2.1739 0.541548ZM27.6816 3.14941C22.4762 3.14941 18.248 6.92052 18.248 11.5742C18.248 16.2279 22.4762 19.999 27.6816 19.999C32.887 19.999 37.1151 16.2279 37.1151 11.5742C37.1151 6.92052 32.9069 3.14941 27.6816 3.14941ZM27.6816 15.2852C25.6473 15.2852 23.9919 13.6203 23.9919 11.5742C23.9919 9.5282 25.6473 7.88336 27.6816 7.88336C29.7159 7.88336 31.3712 9.54826 31.3712 11.5943C31.3712 13.6403 29.7159 15.2852 27.6816 15.2852ZM60.49 15.8867C60.49 17.9327 62.1453 19.5976 64.1796 19.5976C66.2139 19.5976 67.8693 17.9327 67.8693 15.8867C67.8693 13.8406 66.2139 12.1757 64.1796 12.1757C62.1453 12.1757 60.49 13.8406 60.49 15.8867Z" fill="#141619"/>
</svg>
